<svg width="48" height="48" viewBox="0 0 48 48" fill="none" xmlns="http://www.w3.org/2000/svg">
<circle cx="24" cy="24" r="24" fill="#D2F8F9"/>
<path fill-rule="evenodd" clip-rule="evenodd" d="M25.4167 12.4383C24.9808 12.4165 24.4821 12.4166 23.8728 12.4166L23.7597 12.4167L23.7212 12.4167C22.152 12.4166 20.9218 12.4166 19.9381 12.5082C18.9356 12.6016 18.1136 12.7951 17.3859 13.2295C16.5681 13.7177 15.8844 14.4014 15.3962 15.2192C14.9618 15.9469 14.7683 16.769 14.6749 17.7715C14.5833 18.7552 14.5833 19.9853 14.5833 21.5545L14.5833 21.593V26.1667L14.5833 26.208C14.5833 27.8889 14.5833 29.2066 14.6878 30.257C14.7944 31.328 15.0156 32.2021 15.511 32.965C15.9498 33.6408 16.5259 34.2168 17.2017 34.6557C17.9645 35.1511 18.8386 35.3722 19.9097 35.4788C20.96 35.5833 22.2777 35.5833 23.9587 35.5833H24H24.0413C25.7222 35.5833 27.0399 35.5833 28.0903 35.4788C29.1614 35.3722 30.0355 35.1511 30.7983 34.6557C31.4741 34.2168 32.0501 33.6408 32.489 32.965C32.9844 32.2021 33.2056 31.328 33.3121 30.257C33.4167 29.2066 33.4167 27.8889 33.4167 26.208V26.1667V22.4135L33.4167 22.2732C33.4168 21.544 33.4169 20.9423 33.3869 20.4167H30.1667L30.1147 20.4167H30.1146C29.2162 20.4167 28.467 20.4167 27.8722 20.3367C27.2444 20.2523 26.6776 20.0667 26.2221 19.6112C25.7666 19.1557 25.581 18.5889 25.4966 17.9611C25.4166 17.3664 25.4166 16.6171 25.4167 15.7187L25.4167 15.6667V12.4383ZM33.1471 18.9167C33.1322 18.8681 33.1164 18.8199 33.0998 18.7719C33.0255 18.5575 32.9386 18.3478 32.8396 18.1437C32.4164 17.2718 31.7189 16.5745 30.5879 15.4439L30.4887 15.3447L30.2483 15.1043L30.1684 15.0243C29.2568 14.1126 28.6953 13.5509 28.0175 13.1661C27.6681 12.9678 27.2992 12.8068 26.9167 12.6855V15.6667C26.9167 16.6307 26.9183 17.2782 26.9832 17.7613C27.0452 18.2227 27.1525 18.4202 27.2828 18.5505C27.4131 18.6809 27.6106 18.7881 28.0721 18.8501C28.5551 18.9151 29.2027 18.9167 30.1667 18.9167H33.1471ZM20.75 23.25C20.3358 23.25 20 23.5858 20 24C20 24.4142 20.3358 24.75 20.75 24.75H27.25C27.6642 24.75 28 24.4142 28 24C28 23.5858 27.6642 23.25 27.25 23.25H20.75ZM20 28.3333C20 27.9191 20.3358 27.5833 20.75 27.5833H25.0833C25.4975 27.5833 25.8333 27.9191 25.8333 28.3333C25.8333 28.7475 25.4975 29.0833 25.0833 29.0833H20.75C20.3358 29.0833 20 28.7475 20 28.3333Z" fill="#2A9EA1"/>
</svg>
