<svg width="48" height="48" viewBox="0 0 48 48" fill="none" xmlns="http://www.w3.org/2000/svg">
<circle cx="24" cy="24" r="24" fill="#FFECF3"/>
<path fill-rule="evenodd" clip-rule="evenodd" d="M15.8637 11.553C16.1566 11.8459 16.1566 12.3208 15.8637 12.6137L12.6137 15.8637C12.3208 16.1566 11.8459 16.1566 11.553 15.8637C11.2601 15.5708 11.2601 15.0959 11.553 14.803L14.803 11.553C15.0959 11.2601 15.5708 11.2601 15.8637 11.553ZM24 12.4167C17.6027 12.4167 12.4167 17.6027 12.4167 24C12.4167 30.3973 17.6027 35.5833 24 35.5833C30.3973 35.5833 35.5833 30.3973 35.5833 24C35.5833 17.6027 30.3973 12.4167 24 12.4167ZM24 18.9167C24.4142 18.9167 24.75 19.2525 24.75 19.6667V23.5986L27.666 25.5426C28.0107 25.7724 28.1038 26.238 27.874 26.5827C27.6443 26.9273 27.1786 27.0205 26.834 26.7907L23.584 24.624C23.3753 24.4849 23.25 24.2508 23.25 24V19.6667C23.25 19.2525 23.5858 18.9167 24 18.9167ZM32.1363 12.6137C31.8434 12.3208 31.8434 11.8459 32.1363 11.553C32.4292 11.2601 32.9041 11.2601 33.197 11.553L36.447 14.803C36.7399 15.0959 36.7399 15.5708 36.447 15.8637C36.1541 16.1566 35.6792 16.1566 35.3863 15.8637L32.1363 12.6137Z" fill="#E33071"/>
</svg>
